<?xml version="1.0" encoding="UTF-8" standalone="no"?>
<!-- Created with Inkscape (http://www.inkscape.org/) -->

<svg
   version="1.1"
   id="svg1"
   width="1365.3333"
   height="1365.3333"
   viewBox="0 0 1365.3333 1365.3333"
   sodipodi:docname="eeesoc.svg"
   inkscape:version="1.4.3 (0d15f75042, 2025-12-25)"
   xmlns:inkscape="http://www.inkscape.org/namespaces/inkscape"
   xmlns:sodipodi="http://sodipodi.sourceforge.net/DTD/sodipodi-0.dtd"
   xmlns="http://www.w3.org/2000/svg"
   xmlns:svg="http://www.w3.org/2000/svg">
  <defs
     id="defs1" />
  <sodipodi:namedview
     id="namedview1"
     pagecolor="#ffffff"
     bordercolor="#000000"
     borderopacity="0.25"
     inkscape:showpageshadow="2"
     inkscape:pageopacity="0.0"
     inkscape:pagecheckerboard="0"
     inkscape:deskcolor="#d1d1d1"
     inkscape:zoom="0.55297855"
     inkscape:cx="519.91167"
     inkscape:cy="751.38539"
     inkscape:window-width="1707"
     inkscape:window-height="1006"
     inkscape:window-x="0"
     inkscape:window-y="0"
     inkscape:window-maximized="1"
     inkscape:current-layer="svg1" />
  <g
     id="g284">
    <path
       style=""
       d="m 702.24023,1163.002 c -6.23535,0.025 -12.66632,1.8906 -17.91992,5.8652 -17.87066,13.52 -14.15414,59.6452 5.52539,68.582 8.93332,4.0568 17.26323,2.6405 24.58594,-4.1816 3.63418,-3.3858 4.23438,-3.2823 4.23438,0.7324 0,3.0162 0.52308,3.334 5.49414,3.334 h 5.49414 l -0.89063,-17 c -1.35715,-25.9391 -0.056,-23.7532 -13.79687,-23.1973 -13.7983,0.5582 -12.77444,-0.077 -11.36133,7.0684 1.11262,5.6262 1.26708,5.7676 5.86914,5.3711 6.85794,-0.5909 5.83604,9.2055 -1.47461,14.1367 -13.70438,9.2438 -25.03076,-12.8721 -18.54883,-36.2168 3.52648,-12.7007 18.5134,-15.8339 22.40039,-4.6836 1.3168,3.7773 1.31518,3.7764 7.5293,1.9063 7.87341,-2.3697 7.8419,-2.3286 6.04687,-7.7676 -2.94582,-8.926 -12.79524,-13.9918 -23.1875,-13.9492 z m 15.10547,6.3242 c 0.10784,-0.024 0.64649,0.3795 1.6543,1.1699 1.28333,1.0065 2.33398,2.0571 2.33398,2.334 0,1.0973 -1.09606,0.3909 -2.83789,-1.8301 -0.79037,-1.0078 -1.19346,-1.5465 -1.16992,-1.6543 0,0 0.002,0 0.002,0 3.1e-4,-8e-4 0.002,-0.01 0.002,-0.01 0,0 0,0 0,0 0,0 0.002,0 0.002,0 0,0 0.002,0 0.002,0 0,0 0.002,0 0.002,0 6.5e-4,-4e-4 0.003,0 0.004,0 0,0 0.002,0 0.002,0 0,0 0.002,0 0.002,0 z"
       id="path283" />
    <path
       style=""
       d="m 608.89453,1161.4395 c -5.85437,-0.1836 -5.64141,2.3116 -7.54101,33.8945 -0.74983,12.4666 -1.72266,26.3271 -2.16016,30.8008 l -0.79492,8.1328 7.65625,0.9004 c 9.4338,1.1088 8.20561,4.144 9.37695,-23.168 0.94186,-21.9611 1.11142,-23.0583 2.89453,-18.666 15.37708,37.8775 18.20379,43.8907 20.87891,44.418 11.80661,2.3276 12.32597,1.8818 13.25,-11.418 0.47128,-6.7834 1.75123,-23.0958 2.84375,-36.2481 1.09252,-13.1524 1.8355,-24.063 1.65234,-24.2461 -0.18317,-0.1832 -3.38565,-0.7374 -7.11719,-1.2324 -7.82214,-1.0376 -7.57772,-1.7475 -9.3125,27.0899 -0.4973,8.2668 -1.20575,14.7298 -1.57226,14.3632 -0.36652,-0.3665 -4.94276,-10.4296 -10.16992,-22.3632 L 619.27539,1162 l -7.47656,-0.3945 c -1.10782,-0.059 -2.06796,-0.1398 -2.9043,-0.166 z"
       id="path282" />
    <path
       style=""
       d="m 576.80469,1156.6719 c -1.14265,-0.044 -1.97407,0.03 -2.19727,0.2734 -1.25772,1.3703 -14.74679,68.6946 -13.92773,69.5137 0.34294,0.3429 2.88057,1.0608 5.63867,1.5957 2.75809,0.5349 5.63698,1.041 6.39648,1.125 1.35732,0.1507 15.89195,-69.0182 14.74414,-70.166 -0.99789,-0.9979 -7.22634,-2.2087 -10.65429,-2.3418 z"
       id="path281" />
    <path
       style=""
       d="M 512.50977,1139.0664 C 511.911,1139.7135 492,1207.613 492,1209.0078 c 0,1.9917 13.56691,6.107 14.60352,4.4297 0.42022,-0.6799 2.21231,-7.006 3.98242,-14.0566 2.42368,-9.654 3.68056,-12.6411 5.09179,-12.0996 1.03067,0.3955 2.63361,0.7187 3.5625,0.7187 1.72645,0 4.76472,17.1111 4.76172,26.8145 -0.002,4.8143 -0.002,4.8146 8.99805,6.7871 10.71783,2.349 9.89398,2.6702 8.26367,-3.2344 -3.24685,-11.7591 -6.25835,-28.4049 -5.20898,-28.791 16.43154,-6.0458 22.95843,-31.1626 10.14062,-39.0235 -3.61255,-2.2155 -32.99372,-12.2339 -33.68554,-11.4863 z m 13.56054,17.4941 c 0.12147,-0.01 0.23872,0 0.35352,0.029 12.8852,3.0064 16.15964,10.4136 7.97461,18.0391 -3.4207,3.1869 -12.76651,3.2708 -16.09571,0.1445 -2.76842,-2.5997 4.00208,-18.0301 7.76758,-18.2129 z"
       id="path280" />
    <path
       style=""
       d="m 460.93164,1119.334 c -0.60544,0.079 -3.09136,5.1474 -5.55273,11.332 -16.05749,40.3475 -21.98912,56.591 -21.02149,57.5586 0.60721,0.6073 8.57558,4.3339 17.70703,8.2832 9.13146,3.9493 16.67352,7.1019 16.76172,7.0039 0.0882,-0.098 1.37556,-2.9609 2.85938,-6.3613 l 2.69726,-6.1816 -11.23437,-4.4844 c -12.57811,-5.0203 -12.49223,-4.8181 -6.98633,-16.5313 l 2.70312,-5.7519 8.75977,3.9297 c 4.81742,2.1614 8.9097,3.7664 9.09375,3.5664 1.55093,-1.6854 4.45197,-11.0331 3.64453,-11.7422 -0.56683,-0.4978 -4.4806,-2.3005 -8.69726,-4.0078 C 467.44935,1154.24 464,1152.4281 464,1151.9219 c 0,-0.7689 2.08517,-7.1684 4.64062,-14.2403 0.4521,-1.2511 1.49915,-1.3047 4.3125,-0.2187 2.04284,0.7886 7.37437,2.822 11.84766,4.5176 l 8.13281,3.082 2.75,-5.6621 2.75196,-5.6641 -18.2168,-7.2011 c -10.01985,-3.961 -18.69319,-7.2012 -19.27344,-7.2012 -0.005,0 -0.009,-6e-4 -0.0137,0 z"
       id="path279" />
    <path
       style=""
       d="m 908.97656,1107.1328 c -1.23132,-0.057 -2.40022,0 -3.46094,0.2031 -34.71544,6.5127 -29.35549,41.9981 6.34375,41.9981 12.75783,0 13.38807,0.1365 16.04297,3.5117 8.92018,11.3402 -6.78846,22.2487 -16.67578,11.5801 -3.09359,-3.338 -11.17695,-0.5646 -14.62695,5.0176 -0.92147,1.491 7.38195,9.3362 12.02148,11.3574 14.50068,6.3172 37.22461,-8.0156 37.22461,-23.4785 0,-15.8931 -10.47204,-23.6628 -28.79492,-21.3653 -14.62194,1.8334 -21.29541,-1.4869 -19.26367,-9.582 1.75335,-6.9859 13.80343,-8.2045 17.19141,-1.7383 1.67274,3.1926 14.35546,-2.1307 14.35546,-6.0254 0,-4.9081 -11.73814,-11.079 -20.35742,-11.4785 z"
       id="path278" />
    <path
       style=""
       d="m 412.86914,1093.0176 c -0.87105,0.016 -1.33997,0.4727 -1.87305,1.1953 -1.53335,2.0785 -13.80512,25.2258 -29.37695,55.4101 l -3.93359,7.625 13.49023,7.9239 c 7.41983,4.358 14.69153,8.8577 16.1582,10 1.46667,1.1422 2.76413,2.0961 2.88477,2.1191 1.60918,0.3111 6.85654,-12.639 5.48437,-13.5351 -0.93648,-0.6116 -5.45376,-3.332 -10.0371,-6.045 -4.58333,-2.713 -8.33204,-5.4279 -8.33204,-6.0332 0,-0.9523 6.35564,-14.2941 7.34571,-15.4199 7.7e-4,-9e-4 0.003,0 0.004,0 10e-4,-8e-4 0.005,-0.01 0.006,-0.01 0.31338,-0.1466 4.34518,2.0444 9.0625,4.9316 6.46293,3.9558 9.04064,4.9223 9.98047,3.7422 1.78948,-2.2468 5.88404,-10.4555 5.36524,-10.7558 -0.23741,-0.1375 -4.18035,-1.9918 -8.76368,-4.1211 -4.58333,-2.1292 -8.33398,-4.4584 -8.33398,-5.1758 0,-1.0529 5.89786,-12.1384 7.46289,-14.0273 0.22321,-0.2695 5.40983,2.2148 11.52539,5.5214 l 11.11914,6.0118 3.14063,-5.4571 c 1.72749,-3.0016 2.60416,-5.6359 1.94726,-5.8554 -0.6569,-0.2195 -8.66449,-4.6531 -17.79297,-9.8516 -10.75684,-6.1258 -14.61688,-8.23 -16.5332,-8.1953 z"
       id="path277" />
    <path
       style=""
       d="m 966.83203,1076.8633 c -7.36863,0.2328 -14.56661,4.0343 -20.73242,11.6523 -10.49495,12.9669 3.64084,47.4712 23.44726,57.2305 24.96694,12.302 45.25783,-14.3427 31.56443,-41.4492 -9.24263,-18.2961 -21.99822,-27.8217 -34.27927,-27.4336 z m -2.38476,12.9121 c 6.35526,-0.3072 14.638,7.1985 23.22851,21.5586 6.52011,10.8991 6.64063,16.8619 0.43945,21.623 -11.36409,8.7251 -38.76069,-26.8753 -30.14648,-39.1738 1.79989,-2.5697 3.99167,-3.8876 6.47852,-4.0078 z"
       id="path276" />
    <path
       style=""
       d="m 360.37109,1053.0098 c -3.3948,0.058 -8.0107,6.3434 -24.27734,27.2715 l -21.9082,28.1835 5.1289,4.4356 c 2.82103,2.4386 5.56525,4.4336 6.09766,4.4336 0.82904,0 21.45792,-26.8934 26.21484,-34.1758 2.05198,-3.1414 1.47872,2.0689 -3.02734,27.5078 -1.75362,9.9 -3.35591,19.292 -3.56055,20.8692 -0.26239,2.0222 1.19988,4.0584 4.96094,6.9082 2.93333,2.2226 5.38497,4.0828 5.44727,4.1328 0.54004,0.435 39.20087,-53.5593 41.7207,-58.2676 1.40065,-2.6172 -5.34809,-9.6426 -9.26367,-9.6426 -0.44589,0 -6.09169,7.5013 -12.54493,16.668 -6.45323,9.1666 -12.00163,16.666 -12.33007,16.666 -0.71234,0 0.10457,-5.4175 4.42382,-29.3184 l 3.25,-17.9843 -5.01757,-4.2989 c -2.28989,-1.9614 -3.65653,-3.4171 -5.31446,-3.3886 z"
       id="path275" />
    <path
       style=""
       d="m 1026.6016,1034.7656 c -9.333,-0.3267 -21.4613,5.1864 -26.2676,14.5938 -9.03863,17.6913 12.2639,50.3237 35.666,54.6347 19.6448,3.6189 35.0005,-16.897 25.9766,-34.705 -3.9798,-7.8536 -3.9188,-7.8428 -10.3575,-1.8575 -5.0481,4.6926 -5.0486,4.6915 -2.3339,8.1426 5.0356,6.4017 0.6067,15.0918 -7.6914,15.0918 -6.4649,0 -22.2441,-13.6551 -27.4805,-23.7812 -6.1905,-11.9712 3.2756,-24.3064 12.2109,-15.9121 3.13,2.9405 13.1325,-4.5508 11.8711,-8.8907 -1.4012,-4.8207 -5.9939,-7.1204 -11.5937,-7.3164 z"
       id="path274" />
    <path
       style=""
       d="m 335.23047,1029.2695 -11.21094,11.6993 c -6.16586,6.4343 -17.52288,18.1395 -25.23828,26.0117 l -14.0293,14.3125 5.22852,5.3535 c 2.87521,2.9445 5.38663,5.3535 5.58203,5.3535 0.3828,0 27.77379,-28.2455 41.75,-43.0527 l 8.54297,-9.0528 -5.3125,-5.3125 z"
       id="path273" />
    <path
       style=""
       d="m 1045.5352,1004.6211 c -0.1455,0 -0.2113,0.082 -0.2129,0.2402 -0.01,0.626 -2.0924,3.3337 -4.6348,6.0157 l -4.623,4.875 26.3007,24.7382 c 30.0161,28.2314 26.8128,26.2256 32.1641,20.1309 5.5684,-6.3421 6.7825,-4.4327 -17.5293,-27.5742 -22.7435,-21.6486 -30.1779,-28.4064 -31.4648,-28.4258 z"
       id="path272" />
    <path
       style=""
       d="m 288.30469,989.20898 c -11.21838,0.49658 -23.9624,7.12266 -35.03907,19.73832 -14.80497,16.8619 -8.82497,43.0527 9.83008,43.0527 4.03524,0 4.03581,6e-4 0.9043,3.334 -3.1315,3.3333 -3.1315,3.3327 0,6.666 1.72233,1.8334 3.63081,3.334 4.24023,3.334 1.10147,0 30.78026,-25.1261 31.43555,-26.6133 0.18864,-0.4281 -3.56431,-4.6517 -8.33984,-9.3848 l -8.68164,-8.6054 -4.27149,4.2715 -4.27148,4.2714 3.69922,3.8633 3.70117,3.8633 -3.60156,2.832 c -8.74235,6.8767 -21.66705,-1.5265 -19.53125,-12.6992 1.42638,-7.4616 23.82576,-24.4668 32.22851,-24.4668 9.84406,0 14.98488,9.2564 9.21485,16.5918 -2.76626,3.5167 3.39239,12.0762 8.68945,12.0762 5.02797,0 8.94084,-17.279 5.67969,-25.084 -4.97428,-11.90514 -14.66834,-17.5376 -25.88672,-17.04102 z"
       id="path271" />
    <path
       style=""
       d="m 1083.873,959.31445 c -0.7093,-0.0453 -1.2548,0.73805 -2.2832,2.21094 -1.2066,1.72819 -6.858,8.66154 -12.5585,15.4082 -5.7007,6.74666 -10.3653,12.51839 -10.3653,12.82618 0,0.48894 35.2546,30.09403 49.9707,41.96293 6.9979,5.644 5.6591,6.6609 28.2168,-21.4317 l 4.0488,-5.043 -4.5136,-4.7832 c -2.4821,-2.63168 -4.653,-4.5645 -4.8242,-4.29293 -0.2466,0.39147 -7.5506,9.10303 -17.043,20.32613 -0.9722,1.1495 -14.5215,-9.3272 -14.5215,-11.2285 0,-0.5393 2.6723,-3.954 5.9395,-7.58786 l 5.9414,-6.60742 -4.3282,-4.19531 -4.3281,-4.19532 -7.1699,7.25977 -7.168,7.25976 -5.1094,-4.04687 c -6.3864,-5.05807 -6.4337,-4.59956 1.5567,-15.15625 7.825,-10.33826 7.6801,-9.46667 2.5195,-15.14258 -2.1617,-2.3776 -3.1765,-3.49166 -3.9805,-3.54297 z"
       id="path270" />
    <path
       style=""
       d="m 255.73242,923.63477 c -3.09028,-0.12612 -9.95626,4.05188 -30.01367,15.24609 -34.97789,19.52146 -31.90879,16.8937 -28.1582,24.11133 l 3.10547,5.97851 L 221,957.30469 c 11.18333,-6.41689 20.33398,-11.17104 20.33398,-10.56446 0,0.60657 -0.51578,1.42076 -1.14648,1.81055 -0.63069,0.38979 -4.92166,7.47593 -9.53516,15.74609 -4.6135,8.27015 -10.17977,17.66386 -12.36914,20.875 -3.98068,5.83845 -3.98197,5.83779 -1.15039,11.66602 3.47993,7.16271 -0.54884,8.47221 29.69922,-9.64258 14.20907,-8.50942 28.08399,-16.62185 30.83399,-18.02734 5.93595,-3.03378 5.84853,-2.54504 1.65039,-9.19531 -4.19012,-6.63758 -1.90875,-7.24071 -22.87305,6.04687 -17.91319,11.35374 -17.91326,11.35504 -14.62109,5.66797 1.81069,-3.12789 7.29615,-12.56468 12.18945,-20.9707 l 8.89648,-15.28321 -3.12109,-6.36328 c -1.59353,-3.24856 -1.94029,-5.34926 -4.05469,-5.43554 z"
       id="path269" />
    <path
       style=""
       d="m 1114.7656,913.90234 c -0.6091,0.0296 -1.0117,0.16611 -1.1015,0.43555 -0.2548,0.76449 -5.7437,9.15903 -12.1973,18.65234 l -11.7324,17.25977 3.9824,3.20898 c 5.7435,4.62677 5.56,4.67959 11.0781,-3.21679 l 5.0528,-7.22852 23.2929,15.82617 c 26.8203,18.22307 24.314,17.23792 27.5782,10.82618 1.3999,-2.75 2.724,-5.34076 2.9433,-5.75782 0.2806,-0.53373 -36.0251,-27.05064 -44.7246,-32.66601 0,-0.001 -0.01,-0.006 -0.01,-0.008 0,0 0,-0.002 0,-0.002 -0.1396,-0.24392 1.5608,-3.13271 3.8399,-6.50976 2.3283,-3.44989 3.7036,-6.74288 3.0625,-7.33204 -1.8943,-1.74055 -8.425,-3.6167 -11.0645,-3.48828 z"
       id="path268" />
    <path
       style=""
       d="m 233.24414,867.08398 -32.28906,13.90625 c -17.75858,7.64905 -32.46006,14.07778 -32.66992,14.28516 -0.20986,0.20739 3.09078,9.15128 7.33398,19.875 4.24319,10.72371 7.848,19.50086 8.01172,19.50586 0.16371,0.005 2.93322,-1.26906 6.1543,-2.83398 l 5.85742,-2.84571 -4.34571,-10.15429 c -6.91107,-16.15499 -6.94455,-15.24066 0.71485,-18.82813 7.62399,-3.57089 7.69775,-3.52973 11.92578,6.67188 1.6716,4.03334 3.20971,7.5256 3.41992,7.75976 0.73499,0.81873 11.3086,-2.85735 11.3086,-3.93164 0,-0.59635 -1.49871,-4.47756 -3.33204,-8.62305 -4.20716,-9.51314 -4.21223,-9.46936 1.11524,-11.69531 10.54125,-4.40442 9.71717,-4.83632 15.73047,8.25586 l 5.49023,11.95313 5.49805,-2.46094 c 6.78436,-3.03745 6.97101,-1.12952 -2.21289,-22.71485 z"
       id="path267" />
    <path
       style=""
       d="m 1141.0605,851.9375 c -0.1789,0.005 -0.3012,0.0952 -0.3652,0.27148 -5.1788,14.263 -5.4206,12.61663 3.2793,22.42969 4.3828,4.94352 8.8827,9.74613 9.9981,10.67188 4.0158,3.33278 1.791,4.02234 -12.9727,4.02734 l -15,0.006 -2.666,6.2832 c -1.4667,3.45612 -2.888,6.81722 -3.1582,7.46875 -0.2837,0.68437 9.57,0.80224 23.334,0.2793 23.8245,-0.90518 23.8242,-0.90523 35.8242,4.50586 6.6,2.97609 12.4709,5.42034 13.0469,5.43164 0.9907,0.0195 6.2851,-11.08645 6.2851,-13.18359 0,-0.5404 -5.7213,-3.57632 -12.7148,-6.74805 -13.5164,-6.12996 -14.7976,-7.30975 -37.6114,-34.59766 -3.7172,-4.44618 -6.313,-6.8735 -7.2793,-6.8457 z"
       id="path266" />
    <path
       style=""
       d="m 1194.6602,616.17383 c -0.4717,0.0153 0.013,2.28278 0.9199,6.09765 1.9157,8.05552 9.9167,56.73551 9.3887,57.12305 -0.1662,0.12198 -7.4901,-2.65296 -16.2754,-6.16797 -15.782,-6.3145 -18.3864,-6.91067 -15.6954,-3.59179 0.7576,0.93438 4.3897,8.29856 8.0723,16.36523 3.6826,8.06667 9.3678,20.36731 12.6328,27.33398 9.4839,20.23636 20.9629,46.51047 20.9629,47.98047 v 0 c 0,0.7433 0.3708,1.35157 0.8242,1.35157 0.453,0 0.4406,-5.24936 -0.027,-11.66602 -0.4681,-6.41667 -1.4545,-20.36667 -2.1914,-31 -0.7369,-10.63334 -1.5511,-21.46574 -1.8105,-24.07227 l -0.4727,-4.74023 11.5039,2.85742 c 6.3277,1.57154 12.7981,3.27721 14.377,3.78906 3.0391,0.98518 -3.0879,-11.43833 -29.832,-60.5 -8.2645,-15.16106 -11.6058,-21.18515 -12.3789,-21.16015 z"
       id="path265" />
    <path
       style=""
       d="m 175.84375,616 c -0.64755,0 -1.17773,0.51491 -1.17773,1.14453 0,0.62962 -5.16902,9.17962 -11.48633,19 -9.0513,14.07043 -37.14837,60.26814 -38.86914,63.9082 -0.19623,0.41512 5.80246,-0.29282 13.33203,-1.57421 17.06973,-2.90497 17.47865,-2.91984 16.57031,-0.55274 -0.40653,1.05939 -1.96563,14.4107 -3.46484,29.66797 -1.49922,15.25727 -3.00631,29.76408 -3.34766,32.23828 -0.79821,5.78553 -0.97705,6.03348 8.03125,-11.16601 10.09653,-19.27725 39.07533,-71.52975 40.87305,-73.69922 2.35577,-2.84292 0.94671,-2.78212 -15.39258,0.65429 -8.66519,1.82243 -16.15675,2.91357 -16.64649,2.42383 -0.95103,-0.95104 8.33688,-48.66836 11.10352,-57.04492 0.90828,-2.75 1.12217,-5 0.47461,-5 z"
       id="path264" />
    <path
       style=""
       d="m 164.99414,510.26953 c -0.95331,0.0195 -1.24194,0.52737 -1.53125,1.53516 -0.34671,1.20778 -2.18369,8.79466 -4.08203,16.86133 -1.89833,8.06666 -3.7555,15.65293 -4.12695,16.85742 -0.80904,2.62346 5.46133,4.67596 41.97656,13.73437 13.51032,3.35153 24.87002,6.39932 25.24414,6.77344 1.51439,1.51438 12.19141,-29.30902 12.19141,-35.19531 0,-0.78187 -11.24355,-4.48647 -11.33985,-3.73633 -0.77368,6.02769 -8.18557,23.52314 -9.7168,22.93555 -1.07398,-0.41213 -4.62649,-1.4232 -7.89453,-2.2461 -7.30725,-1.83999 -7.83113,-3.08147 -5.16406,-12.25586 2.65285,-9.1255 2.76903,-8.42087 -1.55078,-9.45117 -2.01667,-0.48099 -4.68998,-1.17965 -5.94141,-1.55078 -1.81101,-0.53709 -2.72687,0.9054 -4.48242,7.06445 -2.9054,10.19314 -3.20941,10.40584 -11.12305,7.77735 -7.8444,-2.60549 -7.75603,-2.23051 -3.65625,-15.51758 l 3.13086,-10.14258 -6.41796,-2.05273 c -2.94502,-0.94178 -4.56232,-1.41009 -5.51563,-1.39063 z"
       id="path263" />
    <path
       style=""
       d="m 240.85156,478.96094 c -2.66803,-0.15434 -3.46102,1.58974 -4.60742,5.93359 -0.93465,3.54147 -2.2969,8.69575 -3.02734,11.45508 -1.09872,4.15051 -1.7214,4.80835 -3.60547,3.81055 -1.25255,-0.66335 -7.378,-3.04199 -13.61133,-5.28711 -6.23334,-2.24511 -17.86769,-6.52642 -25.85352,-9.51368 -7.98582,-2.98725 -14.69792,-5.25323 -14.91601,-5.03515 -0.21808,0.21809 -1.57766,3.15317 -3.02149,6.52148 l -2.625,6.12305 25.54102,9.08984 c 14.04775,4.99872 28.84166,10.42799 32.875,12.06446 11.28364,4.57818 10.65697,5.0863 17.49219,-14.24024 6.15929,-17.41536 6.1606,-17.41491 2.66797,-18.74609 -3.43086,-1.30764 -5.70778,-2.08318 -7.3086,-2.17578 z"
       id="path262" />
    <path
       style=""
       d="m 1175.2754,478.44531 c -12.0496,-0.64594 -26.932,4.14206 -40.8516,15.10352 -11.7213,9.23038 -9.8322,30.49237 3.4278,38.57812 4.3335,2.64246 17.1984,3.52314 20.5351,1.40625 5.0833,-3.22498 -1.1646,-13.39517 -7.75,-12.61523 -9.975,1.1814 -15.1581,-7.17294 -9.1719,-14.7832 5.4173,-6.887 29.5482,-15.6765 37.5352,-13.67188 11.1422,2.79652 11.6308,16.2155 0.7227,19.85156 -1.5946,0.5315 2.4932,13.01953 4.2617,13.01953 5.5656,0 14.7684,-11.19118 15.6523,-19.0332 1.9402,-17.21367 -8.8689,-27.02497 -24.3613,-27.85547 z"
       id="path261" />
    <path
       style=""
       d="m 1175.4043,443.08984 c -1.6261,-0.0578 -4.1777,1.27633 -9.1094,3.76758 -4.5624,2.30474 -13.0943,6.24484 -18.9609,8.75586 -9.7071,4.15475 -36.6446,16.44089 -37.8242,17.25195 -0.2698,0.18554 0.5723,3.29683 1.873,6.91407 2.7811,7.73392 -2.1725,8.95819 40.0781,-9.89453 15.4706,-6.90317 28.8722,-12.55079 29.7793,-12.55079 0.9072,0 1.4495,-0.45437 1.2051,-1.00781 -0.2445,-0.55343 -1.5761,-3.85213 -2.959,-7.33203 -1.5838,-3.98536 -2.2391,-5.83882 -4.082,-5.9043 z"
       id="path260" />
    <path
       style=""
       d="m 203.92969,410.57616 -4.09375,9.04492 c -9.04148,19.97796 -10.51942,23.47278 -10.09961,23.89258 0.8008,0.8008 30.69534,15.43263 47.59765,23.29688 9.16667,4.26503 17.02599,7.77894 17.4668,7.80664 0.44081,0.0277 2.62415,-4.00117 4.85156,-8.95117 2.2274,-4.95 5.62169,-12.47701 7.54297,-16.72852 l 3.49414,-7.73047 -4.63476,-1.9375 c -2.54927,-1.06515 -4.94713,-1.93555 -5.32813,-1.93555 -0.381,0 -2.87135,4.34936 -5.5332,9.66602 -2.66185,5.31667 -5.00834,9.85655 -5.21484,10.08789 -0.49029,0.54931 -16.64454,-7.60555 -16.64454,-8.40234 0,-0.3352 1.49871,-4.001 3.33204,-8.14649 4.19235,-9.47965 4.26744,-8.97589 -1.66602,-11.26367 -2.75,-1.06033 -5.45,-2.1308 -6,-2.37891 -0.55,-0.2481 -1,0.12621 -1,0.83204 0,0.70583 -1.5166,4.59414 -3.36914,8.64062 l -3.36719,7.35547 -6.96484,-3.33984 c -3.83079,-1.83695 -7.18972,-3.54949 -7.46485,-3.80665 -0.4744,-0.44338 0.93975,-4.28208 5.73047,-15.54882 2.11335,-4.97014 2.11252,-4.96921 -3.26172,-7.71094 z"
       id="path259" />
    <path
       style=""
       d="m 1145.2949,382.21288 c -3.586,0.0547 -11.7363,5.15784 -35.9648,19.7207 -13.8348,8.31558 -25.8898,15.36299 -26.7871,15.66211 -2.0638,0.68792 -0.7552,5.95625 2.5234,10.15821 2.4085,3.08674 2.4091,3.08542 22.3379,-9.50391 10.9609,-6.92413 20.1269,-12.41426 20.3691,-12.20117 0.824,0.72497 -18.4136,28.50049 -24.4394,35.28515 -6.909,7.77923 -6.6716,6.91578 -3.7442,13.55079 1.2411,2.81308 2.5571,5.11523 2.9239,5.11523 1.0252,0 64.6687,-32.17909 65.9277,-33.33398 1.0333,-0.94783 -3.7103,-12 -5.1504,-12 -0.7989,0 -28.0581,14.25896 -32.4062,16.95117 -5.683,3.51875 -4.4648,0.85599 8.3808,-18.32032 14.3267,-21.38735 13.6542,-19.60114 10.041,-26.68359 -1.3513,-2.64892 -1.8601,-4.43322 -4.0117,-4.40039 z"
       id="path258" />
    <path
       style=""
       d="m 247.70898,363.28905 c -6.70105,0.0689 -14.59371,1.69059 -17.80664,4.80469 -17.05747,16.53275 -5.67953,41.64008 24.4961,54.05078 18.62413,7.65976 32.42374,1.93472 37.79492,-15.68164 4.37826,-14.35979 -11.71906,-33.37501 -18.38281,-21.71484 -2.71369,4.74839 -2.71429,4.7486 1.89843,9.36132 7.19781,7.19781 3.42631,17.89063 -6.31054,17.89063 -9.47842,0 -33.61402,-17.40755 -35.49414,-25.59961 -1.76271,-7.68047 5.95445,-11.7168 16.14257,-8.44336 2.67231,0.85862 2.97119,0.49553 8.31836,-10.1543 1.555,-3.09705 -3.95519,-4.58254 -10.65625,-4.51367 z"
       id="path257" />
    <path
       style=""
       d="m 1098.6387,334.40039 c -3.2591,0.11611 -6.6014,0.83871 -9.8965,2.25586 -33.8805,14.57112 -45.3426,48.89917 -20.0762,60.12891 19.7386,8.7729 56.6983,-15.14483 56.6543,-36.66211 -0.031,-15.3213 -12.5588,-26.22579 -26.6816,-25.72266 z m 2.4902,13.98438 c 3.199,-0.15307 5.6937,1.1039 8.2383,3.64843 6.9796,6.97966 0.1427,18.12004 -17.3711,28.30078 -25.3988,14.76437 -33.3118,-8.18944 -8.3086,-24.10156 8.05,-5.12302 13.3285,-7.65085 17.4414,-7.84765 z"
       id="path256" />
    <path
       style=""
       d="m 274.20312,312.31641 c -1.3113,-0.0491 -2.33294,1.24427 -4.62304,4.01367 -1.96932,2.38148 -7.8867,9.20149 -13.15039,15.15625 l -9.57032,10.82812 5.01563,4.89649 5.01562,4.89843 4.61524,-5.92187 4.61328,-5.92188 12.62891,9.53321 c 6.94601,5.24377 17.30809,13.28386 23.02734,17.86719 12.28295,9.84341 11.37241,9.66778 16.57227,3.19726 l 4.12695,-5.13476 -23.23633,-17.6875 C 273.39515,328.37127 274.50968,329.79024 280,323.53711 l 3.99805,-4.55469 -4.57618,-3.49219 c -2.6786,-2.04306 -4.06171,-3.13048 -5.21875,-3.17382 z"
       id="path255" />
    <path
       style=""
       d="m 1061.5781,280.66211 c -0.7247,-0.0279 -1.3448,0.16719 -1.832,0.62109 -1.59,1.48118 -2.2797,3.18647 -1.6816,4.1543 0.6796,1.09949 0.4627,1.30099 -0.6563,0.60937 -1.1059,-0.68346 -5.9847,3.41599 -14.4297,12.12696 -7.0169,7.23792 -16.9517,17.46934 -22.0781,22.73633 l -9.3203,9.57617 3.8769,4.65234 c 4.8015,5.76333 3.9934,6.03092 15.1641,-4.99609 7.8815,-7.78008 9.6242,-8.9327 11.3457,-7.50391 2.952,2.44987 2.613,4.17387 -3.3008,16.85547 -6.4761,13.88739 -6.459,12.9513 -0.332,19.82031 5.9761,6.69987 5.6535,7.01605 12.1797,-11.95312 l 5.0351,-14.63867 8.127,-0.0274 c 12.7322,-0.0437 21.6623,-8.52251 21.6523,-20.55859 -0.01,-10.07753 -16.7441,-31.20542 -23.75,-31.47461 z m 2.791,19.52148 c 1.9378,-0.0123 3.4031,1.73912 5.4747,5.2461 3.0711,5.19898 2.6764,8.63356 -1.3575,11.80664 -5.1699,4.06662 -11.191,3.59566 -15.8222,-1.23828 l -3.834,-4.00196 7.2344,-6.47851 c 3.9582,-3.54522 6.3669,-5.3217 8.3046,-5.33399 z"
       id="path254" />
    <path
       style=""
       d="m 318.32031,274.06836 c -4.93485,0.004 -10.08152,3.03169 -17.32812,9.70117 -4.57858,4.21394 -10.16054,9.15541 -12.4043,10.98047 l -4.08008,3.31836 25.36328,26.96484 c 13.94953,14.83145 25.68391,26.91562 26.07813,26.85352 0.39423,-0.0621 2.62068,-2.33264 4.94726,-5.04688 l 4.23047,-4.93554 -9.92383,-10.85743 c -9.92441,-10.85721 -9.92453,-10.85624 -6.93359,-12.95117 4.03266,-2.82459 3.62038,-2.91579 18.40625,4.03907 l 13.04102,6.13476 4.77148,-5.13476 c 2.62457,-2.82407 4.7888,-5.49976 4.80859,-5.94532 0.0345,-0.77395 -18.54446,-8.81135 -27.61132,-11.94531 -3.75564,-1.29814 -4.12973,-1.83407 -2.89844,-4.13477 3.77676,-7.05692 -3.17381,-19.86478 -13.69141,-25.23046 -2.33219,-1.1898 -4.53227,-1.81239 -6.77539,-1.81055 z m -1.02734,15.65234 c 7.18764,0.22576 12.10771,8.40635 5.23633,16.23242 -5.17882,5.89837 -4.73607,5.95888 -12.25977,-1.67968 l -6.29492,-6.39258 4.4082,-4.27344 c 2.93651,-2.84617 6.0976,-3.97506 8.91016,-3.88672 z"
       id="path253" />
    <path
       style=""
       d="m 342.80664,245.62109 c -7.76678,3.65943 -12.48357,9.1855 -9.44336,11.06446 0.74973,0.46335 6.19794,6.94885 12.10742,14.41211 5.90948,7.46326 15.54722,19.41824 21.41797,26.56836 l 10.67383,13.00195 5.88672,-4.22852 c 5.08957,-3.65505 5.6487,-4.51267 4.12695,-6.33398 -0.96796,-1.15852 -11.25531,-13.97548 -22.86133,-28.48438 -11.60603,-14.50891 -21.46482,-26.2089 -21.9082,-26 z"
       id="path252" />
    <path
       style=""
       d="m 1017.6992,240.17969 -4.9414,5.06054 -4.9433,5.06055 6.2968,5.38281 6.2969,5.38282 -9.9277,11.79882 c -5.4602,6.49033 -13.76639,16.54255 -18.45706,22.33789 l -8.52735,10.53711 5.25196,4.44336 c 6.63793,5.61562 4.43453,6.9843 20.29105,-12.59375 7.538,-9.30731 15.7418,-19.32253 18.2304,-22.25586 L 1031.793,270 l 5.1035,4.93359 5.1035,4.93164 4.1875,-5.00195 4.1895,-5.00391 -16.3399,-14.83984 z"
       id="path251" />
    <path
       style=""
       d="m 706.11523,1020.4531 c -0.29586,0.011 -0.78852,0.3319 -1.44531,0.877 -4.32401,3.5887 -37.84884,3.1074 -47.60547,-0.6836 -1.80174,-0.7001 -1.48722,0.5841 1.5293,6.2363 3.41415,6.3972 19.66372,43.141 22.01562,49.7832 0.79297,2.2395 1.32055,1.7068 3.29883,-3.332 1.2956,-3.3 6.94604,-16.0767 12.55664,-28.3926 8.53907,-18.7443 10.93245,-24.5351 9.65039,-24.4883 z"
       id="path249" />
    <path
       style=""
       d="m 606.00977,955.81641 c -0.91163,0.0505 0.97261,2.82493 5.62109,9.34765 14.30351,20.07061 33.03046,35.35844 50.80664,41.47654 28.85307,9.9306 59.56313,-3.5315 85.68945,-37.56248 9.41529,-12.26393 9.55683,-12.79086 2.07032,-7.73828 -33.89469,22.87526 -102.79783,21.81541 -138.37891,-2.1289 -3.25203,-2.18846 -5.18485,-3.42911 -5.80859,-3.39453 z"
       id="path248" />
    <path
       style=""
       d="m 873.77734,951.59375 c -2.08444,0.0518 -4.84401,0.23522 -7.77734,0.53906 -5.86667,0.6077 -12.61667,1.2497 -15,1.42578 -5.58599,0.4127 -5.95903,-0.46031 6,14.04297 5.68333,6.89245 12.43333,15.11835 15,18.2793 2.56666,3.16095 9.07852,10.96901 14.4707,17.35154 5.39218,6.3826 10.00612,11.4021 10.25391,11.1543 1.08424,-1.0842 -17.19356,-60.54329 -19.22461,-62.53904 -0.22927,-0.22528 -1.63821,-0.30569 -3.72266,-0.25391 z"
       id="path247" />
    <path
       style=""
       d="m 486.94531,951.27539 c -0.83302,0.83302 -20.27929,59.44911 -20.27929,61.12691 0,3.089 17.17627,-16.28483 41.13281,-46.39449 l 9.54101,-11.99023 -14.90625,-1.66211 c -8.19803,-0.91398 -15.16819,-1.40017 -15.48828,-1.08008 z"
       id="path246" />
    <path
       style=""
       d="m 509.69336,900.69727 c -2.40385,0.0333 -7.07642,1.10532 -16.58203,3.44921 -5.62218,1.38632 -11.47218,2.51954 -13,2.51954 -3.10466,0 -3.67376,7.04357 -1.92188,23.80468 l 0.85742,8.19532 h 22.33008 22.33008 l -5.32422,-17 c -2.92771,-9.35 -5.62381,-18.02183 -5.99219,-19.27149 -0.33054,-1.12134 -0.8276,-1.7232 -2.69726,-1.69726 z"
       id="path245" />
    <path
       style=""
       d="M 854.32617,900.51367 C 852.16413,900.73008 840,933.2326 840,938.91406 c 0,0.7439 44.06293,-0.009 44.81445,-0.76562 0.0813,-0.0819 0.51476,-6.85008 0.96289,-15.04102 l 0.81446,-14.89258 -14.96289,-3.51757 c -8.22945,-1.93512 -15.98169,-3.81598 -17.22852,-4.17774 -0.0228,-0.007 -0.0486,-0.008 -0.0742,-0.006 z"
       id="path244" />
    <path
       style=""
       d="m 429.07617,887.54102 c -1.25956,-0.0169 -7.5207,3.66696 -27.07617,15.76757 -8.06667,4.99152 -19.59542,12.08022 -25.61914,15.75391 -12.71113,7.75216 -12.71779,7.91399 -0.41992,10.92773 10.61696,2.60182 10.50649,1.06823 1.17773,16.32032 -2.79593,4.57122 -7.20372,12.52252 -9.79492,17.66797 -2.5001,4.96454 -4.3142,9.05814 -4.14844,9.33984 7.4e-4,10e-4 0.003,0.005 0.004,0.006 8.7e-4,7.6e-4 0.005,0.003 0.006,0.004 10e-4,5.2e-4 0.005,0.004 0.006,0.004 0.002,5.1e-4 0.007,0.002 0.01,0.002 0.6856,0 29.46201,-20.08175 42.16407,-29.42382 4.79481,-3.52647 11.32501,-7.89109 14.51171,-9.70118 l 5.79297,-3.29101 -8.52539,-0.91406 c -4.68966,-0.50222 -10.16973,-1.00834 -12.17773,-1.125 -4.55526,-0.26466 -4.61293,0.10209 1.2832,-8.05274 17.94055,-24.81326 23.06445,-32.15902 23.06445,-33.06445 0,-0.13968 -0.0779,-0.21829 -0.25781,-0.2207 z"
       id="path243" />
    <path
       style=""
       d="m 933.73242,886.92187 c -0.41353,0.0213 0.11176,0.76613 1.32031,2.10157 1.17296,1.2961 7.58222,10.44304 14.24219,20.32617 13.74601,20.39854 14.00728,18.66012 -3.10156,20.64062 l -7.80859,0.9043 6.04492,4.21875 c 3.32408,2.32091 11.33671,8.2324 17.80664,13.13672 6.46992,4.90433 17.46302,13.07435 24.42969,18.1543 6.96666,5.07995 12.8077,9.127 12.97851,8.99414 0.46657,-0.36289 -19.64526,-38.53431 -21.07422,-39.99805 -2.62257,-2.6864 -0.9766,-4.36879 5.76367,-5.88867 11.5115,-2.59577 11.41361,-2.90842 -4.02539,-12.85938 -7.86925,-5.07201 -21.39607,-13.89343 -30.05859,-19.60351 -10.89066,-7.17881 -15.67082,-10.17055 -16.51758,-10.12696 z"
       id="path242" />
    <path
       style=""
       d="m 566.13086,866.36523 c -1.15244,0.004 0.0487,3.78237 3.30664,14.20508 11.46367,36.67408 34.61331,52.98594 85.22852,60.05274 36.15731,5.04823 73.24204,-0.13629 102.42187,-14.31836 20.12537,-9.78139 28.71014,-20.53639 36.75391,-46.04102 4.6067,-14.60661 4.6628,-14.49138 -4.17578,-8.49414 -59.76532,40.55252 -170.46943,39.46045 -219.09375,-2.16016 -2.31168,-1.9787 -3.77271,-3.24654 -4.44141,-3.24414 z"
       id="path241" />
    <path
       style=""
       d="m 884.54883,837.80078 c -3.56256,-0.005 -21.65993,10.46467 -22.33789,13.17969 -2.56154,10.25818 -7.6116,36.06419 -7.14844,36.52734 0.30515,0.30515 6.49086,1.68132 13.74609,3.0586 7.25523,1.37728 14.3265,2.56236 15.71485,2.63476 2.38986,0.12463 2.90332,-52.88573 0.53515,-55.2539 -0.0988,-0.0988 -0.27226,-0.14616 -0.50976,-0.14649 z"
       id="path240" />
    <path
       style=""
       d="m 479.41016,837.41797 c -1.08037,0.0502 -1.51689,4.52041 -1.75,15.58203 -0.1816,8.61667 -0.70346,21.25817 -1.16016,28.0918 l -0.83008,12.42382 4.49805,-0.73632 c 25.84722,-4.23411 29.24457,-5.09655 28.62305,-7.25977 -0.34558,-1.20277 -1.90125,-9.0862 -3.45704,-17.51953 -3.82457,-20.73158 -3.5061,-20.19534 -14.50781,-24.51172 -5.21249,-2.04505 -9.81627,-4.26535 -10.23047,-4.93555 -0.46409,-0.75091 -0.85482,-1.15012 -1.18554,-1.13476 z"
       id="path239" />
    <path
       style=""
       d="m 356.25586,800.13281 -2.99219,7.59961 c -1.64627,4.18037 -7.03604,17.20026 -11.97656,28.9336 -4.94051,11.73333 -9.43217,22.81392 -9.98242,24.62304 -1.1164,3.67048 6.53224,-2.49772 23.38086,-18.85547 9.18571,-8.91809 20.3185,-31.43224 16.21875,-32.79882 -0.88983,-0.29661 -4.5493,-2.55646 -8.13282,-5.02149 z"
       id="path238" />
    <path
       style=""
       d="m 1007.9687,800.00977 -7.7675,4.85742 -7.76956,4.85547 3.73828,9.47265 c 2.05599,5.20965 3.7579,10.56486 3.7832,11.90235 0.0252,1.3375 7.08218,9.28879 15.68168,17.66796 8.5996,8.37918 16.0395,15.23438 16.5312,15.23438 0.8323,0 -3.5191,-11.52686 -15.3223,-40.5918 C 1014.18,816.84903 1012,811.07158 1012,810.57031 c 0,-0.50127 -0.907,-3.08301 -2.0156,-5.73633 z"
       id="path237" />
    <path
       style=""
       d="m 572.54492,781.33398 c -2.12042,0.2775 -8.07552,35.80207 -6.24219,37.33204 21.18988,17.68366 56.7623,30.60689 95.43164,34.66992 52.83141,5.55105 137.43288,-19.38809 134.76368,-39.72657 -2.56567,-19.54952 -5.47617,-32.74489 -7.05274,-31.96679 -0.42782,0.21115 -6.778,3.45608 -14.11133,7.21094 -52.4767,26.86945 -143.50893,26.07266 -192.21484,-1.6836 -5.63251,-3.20983 -10.37907,-5.83594 -10.54883,-5.83594 -0.008,0 -0.0171,-10e-4 -0.0254,0 z"
       id="path236" />
    <path
       style=""
       d="m 965.67187,776 -5.90429,11.84375 -5.9043,11.8418 8.26563,17.40234 c 8.26555,17.40152 8.26642,17.40247 13.40234,17.93359 13.85486,1.43276 13.85275,2.98451 0.01,-30.07226 -2.11509,-5.05079 -2.114,-5.05097 1.50585,-6.37305 14.95857,-5.46329 24.3521,-9.8253 23.8828,-11.08984 -0.3036,-0.81789 -1.35749,-3.73633 -2.34178,-6.48633 -1.78962,-5 -1.79112,-5 -17.35352,-5 z"
       id="path235" />
    <path
       style=""
       d="m 367.02148,776 -2.68554,6.46484 -2.68555,6.46289 14.50781,5.74219 c 7.97969,3.15771 14.50686,6.09804 14.50586,6.53516 -0.002,0.62268 -9.41955,24.77482 -12.91797,33.1289 -0.784,1.87215 2.63506,2.12404 10.70313,0.79102 5.05321,-0.8349 5.21107,-1.04581 13,-17.47656 9.38069,-19.78854 9.13043,-16.42953 2.2539,-30.29492 L 398.07227,776 h -15.5254 z"
       id="path234" />
    <path
       style=""
       d="m 927.19336,750.08206 c -0.0853,-0.004 -0.13832,0.0196 -0.15625,0.0703 -0.22956,0.64961 -3.03847,5.67284 -6.24219,11.16211 -5.82493,9.98049 -5.82519,9.98005 -2.97656,11.99024 1.56675,1.1056 7.34766,5.13308 12.84766,8.94922 5.5,3.81614 10.30129,6.96058 10.66796,6.98828 0.36666,0.0277 3.13468,-4.53423 6.15235,-10.13672 l 5.48633,-10.18555 -12.75977,-9.97461 c -6.46953,-5.05722 -12.01279,-8.81591 -13.01953,-8.86328 z"
       id="path233" />
    <path
       style=""
       d="m 795.4043,749.7344 c -0.21317,0.0109 -0.2577,0.17389 -0.13282,0.48633 0.53787,1.34572 2.42228,8.14661 4.18555,15.11328 2.55082,10.07826 3.95385,13.26224 6.87305,15.58204 C 808.34799,782.5196 821.7,793.67461 836,805.70508 l 26,21.87304 9,-4.47265 c 11.12399,-5.52814 14.11674,-1.25777 -22,-31.39063 -33.67803,-28.0982 -51.53506,-42.08544 -53.5957,-41.98047 z"
       id="path232" />
    <path
       style=""
       d="m 567.625,749.7207 c 1.31742,-3.43315 -3.92376,0.77434 -57.64258,46.2793 -8.22418,6.96667 -17.81424,15.01173 -21.31055,17.87891 l -6.35546,5.21289 9.17382,3.71875 c 11.7513,4.7607 9.91544,5.17419 20.94727,-4.71289 5.25916,-4.71343 17.94095,-15.36938 28.18164,-23.67774 15.32622,-12.43429 18.82733,-15.92813 19.79688,-19.76172 1.77579,-7.02146 6.17999,-22.256 7.20898,-24.9375 z"
       id="path231" />
    <path
       style=""
       d="m 436.66602,748.2793 -12.33204,9.19531 c -14.20714,10.59244 -13.82997,9.46072 -7.39648,22.13281 4.86257,9.57784 6.13373,10.97395 7.69531,8.44727 0.4346,-0.7032 5.86945,-4.5897 12.07813,-8.63672 6.20868,-4.04702 11.25945,-7.82222 11.22265,-8.38867 -0.0368,-0.56645 -2.58813,-5.91722 -5.66797,-11.89063 z"
       id="path230" />
    <path
       style=""
       d="m 485.42578,737.9082 c -0.0316,0.002 -0.0622,0.007 -0.0918,0.0156 -2.29488,0.63453 -32.15734,2.69421 -33.66796,2.32226 -1.50988,-0.37178 -1.35097,0.0808 3.49414,9.94141 2.47175,5.03044 4.92069,10.52052 5.4414,12.20117 0.62493,2.01697 1.70272,2.84357 3.17188,2.42969 1.22419,-0.34488 7.92591,-1.01284 14.89258,-1.48438 16.29698,-1.10308 17.21479,-1.38557 16.41406,-5.04687 -1.77904,-8.13455 -7.66146,-20.49494 -9.6543,-20.37891 z"
       id="path229" />
    <path
       style=""
       d="m 877.60156,737.49805 c -2.69539,0.006 -3.27256,1.43001 -5.58398,7.125 -6.46197,15.92126 -6.12811,17.85955 3.17187,18.39453 4.47897,0.25766 12.36044,0.58331 17.51367,0.72461 l 9.36915,0.25781 5.63085,-11.35352 c 3.09677,-6.24411 5.63086,-11.55316 5.63086,-11.79882 0,-0.24565 -5.88164,-0.83164 -13.07031,-1.30274 -7.18866,-0.4711 -15.79153,-1.22972 -19.11719,-1.68555 -1.51166,-0.20719 -2.64645,-0.36342 -3.54492,-0.36132 z"
       id="path228" />
    <path
       style=""
       d="m 842.00195,716.52148 c -3.07644,-0.0863 -16.13729,18.25222 -13.79883,19.58399 0.98848,0.56294 7.49623,4.62306 14.4629,9.02344 6.96666,4.40037 13.03693,7.59554 13.48828,7.10156 0.93324,-1.02138 7.8457,-19.12757 7.8457,-20.55078 0,-0.96939 -18.66703,-13.91885 -21.79492,-15.11914 -0.062,-0.0238 -0.12929,-0.037 -0.20313,-0.0391 z"
       id="path227" />
    <path
       style=""
       d="m 523.78711,714.89453 -9.61133,6.21875 c -17.43457,11.28231 -16.13791,8.81141 -11.18945,21.33789 2.3643,5.98494 4.41757,10.88281 4.5625,10.88281 0.14492,0 4.95436,-2.91611 10.68945,-6.48046 5.73509,-3.56435 12.35635,-7.63278 14.71289,-9.03907 l 4.28516,-2.55664 -6.72461,-10.18164 z"
       id="path226" />
    <path
       style=""
       d="m 507.24414,673.51953 c -0.41855,-0.47191 -43.11166,1.70823 -71.91016,3.67188 -14.66667,1.00005 -14.66796,0.99899 -36.66796,11.86718 -22,10.86819 -21.99871,10.86942 -53.33204,15.6543 -17.23333,2.63169 -32.28458,5.05665 -33.44531,5.38867 -1.60605,0.4594 -3.95506,-3.54455 -9.83008,-16.75 -4.246,-9.54384 -8.09669,-17.34313 -8.55664,-17.33203 -14.2253,0.34431 -14.48302,2.68605 -3.35547,30.4082 6.47172,16.12303 9.81182,22.88754 11.30274,22.89454 2.489,0.0119 29.94045,-4.99113 61.94531,-11.29102 21.99325,-4.32918 23.31033,-4.77731 40.66797,-13.83398 L 422,694.83789 l 38,-2.125 c 53.67468,-3.00126 49.00075,-1.92676 48.27344,-11.09375 -0.33247,-4.19051 -0.79507,-7.83551 -1.0293,-8.09961 z"
       id="path225" />
    <path
       style=""
       d="m 937.4375,618.35742 c -0.007,5.3e-4 -0.0145,0.002 -0.0215,0.004 -17.65998,4.02825 -69.76606,15.2485 -76.57032,16.48828 l -9.15625,1.66797 0.78125,6.58984 c 0.98568,8.32254 -0.16017,7.82455 12.94922,5.6211 29.64067,-4.98208 64.14968,-10.25686 64.43945,-9.84961 1.274,1.79046 15.47461,35.78364 15.47461,37.04296 0,0.89885 1.01394,1.28084 2.33204,0.87696 1.28333,-0.39323 34.12803,-8.28937 72.9883,-17.54492 38.8602,-9.25555 71.1115,-17.10921 71.668,-17.45313 3.8983,-2.40927 -0.3432,56.91261 -5.7383,80.25977 l -2.7969,12.10742 -18.8945,-4.91406 c -35.9014,-9.33989 -111.46486,-27.65224 -167.55864,-40.60547 -20.9,-4.82624 -38.979,-9.06396 -40.17578,-9.41797 -1.7125,-0.50657 -2.37447,0.67876 -3.10742,5.5664 -0.51221,3.41571 -1.22798,6.98278 -1.58984,7.92579 -0.45389,1.18281 1.75045,2.19659 7.10742,3.27148 8.1773,1.6408 58.851,13.58112 110.43164,26.01953 16.86667,4.06731 36.96602,8.85656 44.66602,10.64453 7.7,1.78797 28.1007,6.81254 45.334,11.16407 17.2334,4.35153 32.2977,7.97162 33.4766,8.04492 2.4999,0.15538 7.5644,-17.16854 11.8711,-40.60938 5.7443,-31.26583 6.757,-90.96048 1.5156,-89.33594 -1.208,0.37442 -11.1973,2.81831 -22.1973,5.43165 -11,2.61334 -43.0987,10.39345 -71.332,17.28906 -28.2334,6.89562 -52.47339,12.72179 -53.86527,12.94726 -2.08609,0.33793 -4.10675,-3.10363 -11.5,-19.58984 -5.02909,-11.21435 -9.58562,-19.71006 -10.53125,-19.64258 z"
       id="path224" />
    <path
       style=""
       d="m 577.04102,561.25977 -7.52149,6.32226 c -40.14935,33.75006 -52.89882,80.08131 -34.88867,126.7832 5.24342,13.59662 5.08579,13.61639 12.11133,-1.41211 l 5.78906,-12.38085 5.02344,10.38867 c 17.1869,35.54031 43.84274,53.56148 89.11133,60.24218 75.16995,11.09352 133.66642,-9.83403 156.16601,-55.86914 L 810.00195,680.66602 815.90039,693 c 7.06343,14.76912 6.62125,14.65194 11.17578,2.94531 17.004,-43.70583 8.7854,-84.99503 -23.56055,-118.35547 -16.01558,-16.5179 -17.03657,-16.80625 -25.98632,-7.38086 -47.80909,50.34994 -143.61854,50.2907 -192.00977,-0.11718 z m 206.67382,66.67382 c 0.73511,-0.0453 2.22368,2.71513 7.31836,12.25196 l 6.1543,11.51757 -14.41211,19.36329 c -7.92567,10.64942 -18.12036,23.90406 -22.65625,29.45507 l -8.24805,10.0918 -9.86523,-11.64062 c -5.42674,-6.40215 -12.74818,-14.78236 -16.26953,-18.625 l -6.40235,-6.98829 -18.57421,20.6543 c -19.89968,22.12837 -18.98746,21.22442 -19.64844,19.48047 -0.24444,-0.64495 -8.49616,-10.14533 -18.33594,-21.11133 l -17.89062,-19.9375 -11.71485,12.85352 c -6.44404,7.06933 -13.93493,15.58786 -16.64648,18.93164 l -4.93164,6.08008 -6.79493,-7.63282 c -3.73794,-4.1981 -14.15889,-17.33463 -23.15625,-29.1914 l -16.35742,-21.55664 6.22852,-11.63086 c 3.42582,-6.39729 6.3088,-11.75423 6.4082,-11.9043 0.0994,-0.15006 7.61206,8.44145 16.69531,19.09375 l 16.51563,19.36914 13.43555,-14.31445 c 7.38891,-7.87281 14.70468,-16.02463 16.25781,-18.11524 2.71269,-3.65144 2.89578,-3.70217 4.66601,-1.26953 4.28554,5.88918 34.70999,39.50782 35.75391,39.50782 0.98573,0 19.96952,-20.49366 32.99219,-35.61719 l 4.23633,-4.91992 5.00586,5.60156 c 2.75349,3.08135 10.19991,11.11755 16.54687,17.85742 l 11.53906,12.25391 15.42774,-18.55078 c 8.48501,-10.20266 15.70092,-19.3167 16.03515,-20.25391 0.22781,-0.63879 0.39985,-1.08579 0.6875,-1.10352 z"
       id="path223" />
    <path
       style=""
       d="m 685.87109,483.88086 c -3.10791,0.0752 -7.0729,0.42449 -12.16797,0.95703 -8.02186,0.83845 -8.02331,0.83824 -9.63085,8.02148 -6.90424,30.85143 -35.49603,53.80665 -67.01954,53.80665 -11.66357,0 -11.56736,0.5383 2.61329,14.58007 16.09069,15.93309 32.07309,23.94512 57.32031,28.73633 39.03935,7.40858 80.87197,-3.92023 106.01367,-28.71094 14.59837,-14.39456 14.637,-14.12361 -2.16992,-14.87109 -29.82686,-1.32654 -58.24661,-25.42058 -62.84375,-53.2793 -1.19087,-7.21668 -2.79149,-9.4657 -12.11524,-9.24023 z m -37.44922,59.0957 c 1.26756,-0.0453 3.27733,1.15742 7.22461,3.56446 3.49435,2.13085 8.90287,4.62636 12.01954,5.54492 5.66666,1.67011 5.66796,1.66873 5.66796,8.79101 0,3.91726 -0.45,7.09485 -1,7.06055 -2.86677,-0.17879 -13.98425,-5.35988 -19.20117,-8.94922 -8.70306,-5.98786 -9.37276,-7.0714 -7.47851,-12.08984 0.97491,-2.58284 1.50002,-3.87661 2.76757,-3.92188 z m 66.14063,0.34571 c 1.49106,0.0416 2.36487,1.58033 3.79102,4.9414 1.73129,4.08021 -5.30256,10.45575 -17.22071,15.60938 -11.9588,5.1712 -11.80195,5.2092 -11.78125,-2.78321 0.0184,-7.08985 0.0187,-7.08978 7.35742,-9.41992 4.0363,-1.28157 9.75129,-3.92676 12.70118,-5.8789 2.45883,-1.62718 3.99263,-2.50113 5.15234,-2.46875 z"
       id="path222" />
    <path
       style=""
       d="m 313.36328,457.32617 -5.83203,11.66992 c -21.92738,43.87954 -35.37164,81.83287 -46.84766,132.25 -5.92471,26.02897 -5.91969,37.35873 0.0137,38.20703 1.45027,0.20736 12.53671,1.64449 24.63671,3.19336 12.1,1.54887 29.72072,3.94872 39.15821,5.33204 l 17.16015,2.51367 3.48243,-4.13867 c 1.91539,-2.2763 5.14859,-6.43807 7.18554,-9.25 l 3.70313,-5.11329 6.98828,3.87305 c 3.84351,2.12998 13.26087,7.2506 20.92773,11.37891 l 13.93946,7.50586 5.22851,-5.22852 c 7.07471,-7.07471 7.28538,-6.89956 -35.46875,-29.4707 -18.4076,-9.71791 -15.10407,-10.03388 -24.6914,2.35937 l -8.05079,10.40821 -31.18164,-5.36524 -31.17968,-5.36328 5.78515,-24.04492 c 6.49256,-26.98262 10.7575,-42.17761 12.29492,-43.80078 0.56871,-0.60043 19.63482,8.21223 42.36914,19.58398 l 41.33594,20.67578 6.87891,-8.58398 c 8.31731,-10.37913 6.37212,-10.34095 24.87109,-0.49024 21.34535,11.36641 20.54093,10.4741 22.73438,25.23047 2.30961,15.53782 -2.64144,12.28575 53.58593,35.20117 8.28198,3.37532 17.28198,7.28047 20,8.67969 l 4.94336,2.54492 0.86914,-7.54296 c 0.47794,-4.14811 0.77729,-7.59361 0.66602,-7.65821 -0.80708,-0.46859 -52.15544,-23.57824 -57.03711,-25.66992 -6.16802,-2.64284 -6.16808,-2.64401 -7.88086,-16.08398 L 442.2383,586.68945 413.29885,571.3457 c -34.24329,-18.15706 -28.89919,-17.27205 -37.01953,-6.14258 l -6.71485,9.20508 -36.67383,-18.77343 -36.67187,-18.77344 4.60937,-12.76367 c 2.53564,-7.02041 7.86051,-19.53261 11.83204,-27.80469 l 7.2207,-15.03906 17.06055,10.5 c 15.92899,9.80509 31.15018,19.76692 131.72461,86.20703 41.84195,27.64105 48.6095,31.9345 49.17773,31.1914 2.42118,-3.16625 7.38588,-13.85955 6.56836,-14.14843 -0.59286,-0.20948 -26.5988,-17.32059 -57.79102,-38.02539 C 391.07251,506.83081 363.95553,489.07939 344,476.70898 c -9.16667,-5.68241 -19.81068,-12.36815 -23.65234,-14.85742 z"
       id="path221" />
    <path
       style=""
       d="m 1006.5762,430 c -0.063,-0.73333 -3.6892,14.83689 -8.05862,34.60156 -8.90831,40.29582 -8.14389,38.13241 -12.18946,34.48828 -8.59016,-7.7378 -38.6206,-29.7301 -36.82812,-26.9707 2.50145,3.85083 18.53293,32.11412 21.63281,38.13867 l 2.18946,4.25781 -30.99415,-0.64648 -30.99414,-0.64648 11.33204,4.57031 c 16.00241,6.45241 33.03551,13.56013 39.59765,16.52344 l 5.59961,2.52734 -8.26562,4.74609 c -9.73077,5.58805 -46.07344,25.07618 -46.76368,25.07618 -10e-4,0 -0.003,1.1e-4 -0.004,0 0,0 -0.002,0 -0.002,0 -9.1e-4,-3.6e-4 -0.005,-10e-4 -0.006,-0.002 0,0 -0.002,-0.002 -0.002,-0.002 -8.1e-4,-7.1e-4 -0.005,-0.003 -0.006,-0.004 -0.18587,-0.23326 0.66681,-4.0405 1.94727,-8.6582 3.00388,-10.83296 3.6617,-10.93113 -19.08789,2.83203 -10.45405,6.32454 -27.10782,16.28054 -37.00781,22.125 -22.11645,13.05644 -20.69066,11.55532 -17.04688,17.96094 l 3.04688,5.35742 23.20898,-12.4707 c 26.51426,-14.2479 24.40539,-13.38428 22.88477,-9.38477 -0.64547,1.69772 -1.61079,6.5952 -2.14649,10.88281 l -0.97461,7.79493 8.51367,-4.71289 c 4.68266,-2.59211 13.31497,-7.29946 19.18164,-10.46094 5.86667,-3.16149 16.23759,-8.93753 23.04688,-12.83594 C 945.19014,571.18949 951.0222,568 951.3418,568 c 0.31959,0 5.09802,-2.67137 10.61914,-5.93555 5.52112,-3.26417 10.03906,-5.76912 10.03906,-5.5664 0,0.83974 -9.18601,40.9545 -10.02344,43.77148 -0.56658,1.90587 4.86052,-2.64852 14.36328,-12.05469 15.2737,-15.11845 15.27302,-15.11845 16.08789,-10 0.44817,2.81515 3.08437,15.61785 5.85938,28.45118 2.92409,13.52288 5.20949,21.65219 5.43359,19.33398 0.2126,-2.2 1.5187,-10.00065 2.9023,-17.33398 1.3835,-7.33333 2.9051,-15.73268 3.3829,-18.66602 0.4778,-2.93333 1.4681,-8.16225 2.1992,-11.61914 l 1.3281,-6.28516 8.9004,6.88477 c 4.895,3.78616 12.1721,9.44185 16.1719,12.56836 6.8408,5.3473 10.0913,6.63326 7.1172,2.8164 -0.728,-0.93439 -3.8281,-8.82765 -6.8887,-17.54101 l -5.5645,-15.8418 8.3653,0.99219 c 8.8222,1.0467 38.7592,3.02827 39.4179,2.60937 0.3779,-0.24032 -27.3552,-18.3673 -37.5312,-24.53125 l -5.1445,-3.11718 7.8105,-3.25782 c 11.7667,-4.90741 39.4605,-16.3464 42.3848,-17.50781 1.4151,-0.56203 -10.2507,-0.75907 -25.9239,-0.4375 -28.4967,0.58466 -28.4953,0.58409 -26.3964,-2.61914 1.1543,-1.76177 4.842,-8.58293 8.1953,-15.1582 3.3532,-6.57527 8.2448,-15.7539 10.8711,-20.39649 5.164,-9.12845 4.9749,-9.15666 -5.9844,-0.90039 -21.6372,16.30056 -33.3347,24.61346 -33.3457,23.69922 -0.01,-0.56379 -2.1009,-16.32345 -4.6543,-35.02344 -2.5534,-18.7 -4.6948,-34.60064 -4.7578,-35.33398 z"
       id="path220" />
    <path
       style=""
       d="m 763.74414,417.74608 c -25.09552,-0.36775 -50.3361,15.77277 -55.98437,48.71094 -4.84115,28.23143 12.62406,57.71778 39.28906,66.33399 38.48103,12.43431 78.14626,-23.30685 71.80859,-64.70508 -5.06655,-33.09519 -30.01775,-49.9721 -55.11328,-50.33985 z m -0.79883,13.084 c 4.11694,-0.0201 8.38152,0.57352 12.72461,1.86328 36.24669,10.76411 41.58227,65.73097 8.14844,83.94726 -22.09534,12.03856 -52.70357,0.0816 -60.61524,-23.67968 -10.58525,-31.79098 10.92362,-61.99012 39.74219,-62.13086 z"
       id="path219" />
    <path
       style=""
       d="m 773.68164,439.86914 c -0.59846,0.002 -2.04078,1.7973 -4.35156,5.0293 -2.53061,3.53946 -9.65672,12.73554 -15.83594,20.43554 -6.17923,7.7 -11.79894,14.72692 -12.48828,15.61719 -0.96197,1.24233 1.10486,1.553 8.88672,1.33399 8.56036,-0.24091 10.00926,0.0262 9.31054,1.71484 C 758.17011,486.49651 748,516.397 748,516.9375 c 0,1.56259 2.38889,-1.28764 11.12305,-13.27148 5.47835,-7.51667 13.31147,-17.86667 17.4082,-23 l 7.44922,-9.33204 -9.17383,-0.66796 -9.17187,-0.66602 4.48242,-14.66602 c 3.30396,-10.81078 4.52931,-15.46825 3.56445,-15.46484 z"
       id="path218" />
    <path
       style=""
       d="m 601.92578,417.62304 c -29.70519,-1.7961 -59.17731,21.6084 -59.24414,58.42968 -0.0537,29.61341 20.5295,54.87093 47.55469,58.35352 52.46747,6.76122 85.04341,-57.34335 49.60156,-97.60742 -10.85955,-12.3371 -24.40975,-18.35938 -37.91211,-19.17578 z m -3.25976,13.74219 c 46.19045,0.0231 59.21643,67.32686 16.66796,86.12305 -30.05282,13.2761 -58.405,-7.12023 -58.5957,-42.1543 -0.14944,-27.45433 15.61088,-43.98195 41.92774,-43.96875 z"
       id="path217" />
    <path
       style=""
       d="m 610.76758,436.66602 -3.20313,4 c -1.7617,2.2 -9.6434,12.63358 -17.51562,23.18554 l -14.31446,19.18555 10.00196,-0.71875 c 11.56694,-0.83248 11.15057,-3.58203 3.16406,20.86914 -2.60872,7.98678 -4.23366,13.98742 -3.61133,13.33398 0.62233,-0.65345 8.62243,-11.23815 17.7793,-23.52148 l 16.65039,-22.33398 h -9.62305 -9.62109 l 4.20508,-13 c 2.31316,-7.15 4.62906,-14.8 5.14648,-17 z"
       id="path216" />
    <path
       style=""
       d="m 683.31055,400.18163 c -17.10301,0.003 -33.94371,3.07652 -46.11914,9.22266 l -8.11524,4.09765 5.79492,3.67774 c 13.45878,8.54197 26.26201,28.17308 29.50586,45.24218 l 1.51367,7.96485 15.05469,-0.19336 c 8.27988,-0.10612 15.06503,-0.49272 15.07813,-0.85938 0.68187,-19.12081 17.98544,-46.64375 34.18164,-54.36718 5.41516,-2.58231 5.52818,-3.3772 0.79492,-5.57618 -13.22137,-6.14236 -30.58644,-9.21151 -47.68945,-9.20898 z"
       id="path215" />
    <path
       style=""
       d="m 412.41602,350.53515 c -0.3514,0.02 0.23884,1.02249 1.875,3.09961 0.73602,0.93439 5.07801,10.09856 9.64843,20.36523 4.57042,10.26666 11.52449,24.94612 15.45313,32.62109 8.61027,16.82095 10.44645,15.43327 -14.14453,10.69141 -11.32003,-2.18284 -20.86443,-3.97161 -21.21094,-3.97461 -0.3465,-0.003 0.85284,1.01306 2.66601,2.25781 6.88153,4.7242 42.30361,34.67102 52.24805,44.17188 5.71043,5.45571 10.35386,9.09014 10.31836,8.07617 -0.0355,-1.01397 -1.15429,-10.5444 -2.48437,-21.17773 -1.33007,-10.63333 -2.34988,-19.4153 -2.26758,-19.51563 0.0823,-0.10034 11.84844,10.81474 26.14844,24.25586 26.24904,24.67248 27.63634,25.90518 25.82031,22.9668 -0.55272,-0.89434 -9.26996,-22.64302 -19.3711,-48.33203 -10.10114,-25.689 -18.3854,-45.92786 -18.4082,-44.97461 -0.0227,0.95326 -1.91267,7.09483 -4.20117,13.64843 l -4.16016,11.91602 -27.97265,-28.07031 C 424.76144,360.88683 413.5639,350.46973 412.41602,350.53516 Z"
       id="path214" />
    <path
       style=""
       d="m 953.33398,348.42577 c 0,-0.35798 -13.30055,12.2745 -29.55664,28.07031 -16.25608,15.79581 -29.91263,28.49933 -30.34765,28.23047 -0.43501,-0.26885 -2.55734,-5.58255 -4.71485,-11.80664 l -3.92187,-11.3164 -8.29297,21.53125 c -4.56088,11.8422 -12.77535,32.78125 -18.25391,46.53125 -5.47856,13.75 -9.68234,25 -9.34375,25 0.33858,0 6.42397,-5.56893 13.52344,-12.37696 38.1575,-36.59114 35.30216,-34.24509 34.40039,-28.28906 -0.44411,2.93334 -1.44161,11.89076 -2.21875,19.90625 -0.77713,8.01549 -1.7183,15.0668 -2.08984,15.66797 -3.23374,5.23231 5.54536,-2.97531 26.83398,-25.08594 13.86276,-14.39803 24.03027,-25.81971 22.59375,-25.38281 -3.79147,1.15314 -19.71372,3.57144 -20.21484,3.07031 -1.00519,-1.00518 10.86658,-28.89161 26.38281,-61.9707 2.87088,-6.12043 5.2207,-11.42133 5.2207,-11.7793 z"
       id="path213" />
    <path
       style=""
       d="m 531.73242,289.82617 c -6.97967,-0.0152 -13.1171,2.78018 -16.21875,9.31641 -10.36371,21.83989 16.53634,52.86856 36.54883,42.1582 7.7891,-4.1686 37.62988,26.27724 51.23047,52.26953 l 5.29297,10.11524 7.37304,-2.74805 c 9.38421,-3.4977 8.90333,-2.82586 6.1543,-8.62109 -6.67195,-14.0651 -25.25566,-37.88022 -43.30664,-55.4961 -10.11531,-9.87149 -12.14552,-12.53926 -12.16992,-16 -0.12215,-17.32477 -19.54903,-30.96074 -34.9043,-30.99414 z"
       id="path212" />
    <path
       style=""
       d="m 832.89453,289.41406 c -4.69262,-0.10223 -9.99947,1.12593 -15.65234,3.98633 -9.67921,4.89776 -19.81521,19.60737 -19.87891,28.84766 -0.0244,3.5335 -1.47402,5.52238 -8.62305,11.83789 -16.70635,14.75853 -52.29302,61.72823 -48.40234,63.88476 0.18052,0.10006 3.32942,1.1391 6.99609,2.31055 3.66667,1.17146 7.36598,2.18771 8.22266,2.25781 0.85668,0.0701 4.30042,-5.02717 7.65234,-11.32812 14.62932,-27.50026 40.64031,-53.38351 50.27344,-50.02539 13.29399,4.63431 27.01992,-0.87206 33.96094,-13.625 11.13427,-20.45732 2.21053,-37.78137 -14.54883,-38.14649 z"
       id="path211" />
    <path
       style=""
       d="m 979.13672,215.87891 c -8.07425,-0.19482 -17.03733,3.57604 -24.49219,11.7207 -20.92254,22.85851 -22.45714,48.35552 -3.44336,57.20898 16.45436,7.6617 42.3932,-6.92393 27.34961,-15.3789 -5.44843,-3.06219 -5.4468,-3.06211 -9.72851,1.08789 -19.70962,19.10332 -21.95023,-13.5649 -2.36133,-34.42969 11.7353,-12.49966 24.97406,-5.85018 18.4082,9.24609 -0.7433,1.70901 4.30529,5.761 11.26758,9.04493 1.70371,0.8036 5.46118,-14.54995 4.63668,-18.94532 -2.34454,-12.49751 -11.25551,-19.30421 -21.63668,-19.55468 z"
       id="path210" />
    <path
       style=""
       d="m 389.55859,214.96094 c -15.1901,0.32489 -27.57371,16.48559 -20.24218,35.98828 3.62094,9.6321 15.31471,24.79889 23.16992,30.05078 20.82446,13.92294 46.09267,-6.47873 35.39453,-28.57813 -3.3177,-6.85346 -3.29993,-6.85145 -10.4043,-1.70507 -5.59084,4.04998 -5.59132,4.05051 -2.86719,7.51367 5.18094,6.58649 1.88085,13.76953 -6.32617,13.76953 -8.45012,0 -25.1173,-19.84041 -27.75781,-33.04297 -1.77408,-8.8704 8.04768,-13.66841 15.36914,-7.50781 6.31062,5.31004 17.69721,-3.24841 11.77149,-8.84766 -5.79073,-5.47169 -12.16347,-7.76775 -18.10743,-7.64062 z"
       id="path209" />
    <path
       style=""
       d="m 441.38281,184.38477 c -3.81381,0.14642 -9.47492,2.37659 -13.17383,5.67773 -0.25209,0.22498 2.74727,16.95314 6.66602,37.17187 3.91876,20.21874 7.33712,36.76268 7.5957,36.76368 6.03221,0.0326 13.00188,-7.62219 11.85157,-13.01563 -1.42776,-6.69431 -1.48468,-6.61108 7.98632,-11.66015 l 6.97657,-3.72071 5.02343,5.48242 c 4.93907,5.38852 9.60054,5.24267 17.47852,-0.54687 0.67998,-0.49971 -24.40772,-30.06273 -37.79492,-44.53711 -3.73039,-4.03333 -7.7407,-8.72587 -8.91211,-10.42773 -0.61255,-0.88995 -1.96372,-1.25406 -3.69727,-1.1875 z m 2.58203,19.71289 c 0.38614,0.0535 4.71659,5.00347 9.62305,11 L 462.50781,226 l -5.58789,2.93945 c -3.07312,1.61686 -5.91,2.9669 -6.30469,3 -0.39469,0.0331 -2.21037,-6.23945 -4.03515,-13.93945 -1.82478,-7.7 -3.00138,-13.95584 -2.61524,-13.90234 z"
       id="path208" />
    <path
       style=""
       d="M 922.78516,180.04102 916.5332,191.6875 C 913.09499,198.09314 908.64156,206.33333 906.63672,210 900.07045,222.00905 888,245.23511 888,245.86133 c 0,0.33697 6.75,4.313 15,8.83398 8.25,4.52099 15.5819,8.77553 16.29297,9.45508 0.81522,0.77907 2.39427,-0.8674 4.27344,-4.45703 3.30339,-6.3102 3.65289,-7.69336 1.94336,-7.69336 -0.63668,0 -5.10019,-2.19135 -9.91797,-4.86914 l -8.75977,-4.86914 3.9375,-7.79688 c 4.61277,-9.13785 3.70068,-8.86941 12.67578,-3.73437 l 7.10156,4.06445 2.82032,-5.52734 c 1.55062,-3.03946 2.62707,-5.6757 2.39258,-5.85938 -0.2345,-0.18368 -3.57653,-2.07649 -7.42579,-4.20508 -8.14049,-4.5016 -8.06347,-4.22232 -3.45507,-12.68945 4.22859,-7.76932 4.00044,-7.74131 14.72265,-1.84765 10.3654,5.69754 10.39612,5.69902 12.51367,0.33398 0.94068,-2.38334 1.91889,-4.68667 2.17188,-5.11914 0.25299,-0.43248 -4.50814,-3.66394 -10.58008,-7.17969 -6.07193,-3.51576 -13.26482,-7.80327 -15.98242,-9.52734 z"
       id="path207" />
    <path
       style=""
       d="m 489.59375,164.4668 c -1.31897,-0.0476 -4.05444,0.91606 -9.26172,3.09179 -3.44391,1.43895 -4.34728,2.46643 -3.67578,4.17578 2.75946,7.02441 14.36437,40.22029 18.14062,51.89063 4.25778,13.15845 4.52583,13.59527 7.80665,12.81055 5.9669,-1.42718 30.01626,-10.05591 31.28906,-11.22657 1.62875,-1.49804 -1.89612,-12.15267 -3.79102,-11.45898 -8.63039,3.15944 -19.73402,6.39488 -20.23437,5.89453 -1.05287,-1.05287 -19.20117,-52.13226 -19.20117,-54.04297 0,-0.71368 -0.28089,-1.10623 -1.07227,-1.13476 z"
       id="path206" />
    <path
       style=""
       d="m 870.85352,160.30469 -2.75,6.84765 c -1.51213,3.76622 -7.1579,19.26595 -12.54493,34.44336 l -9.79297,27.59571 6.11719,2.57617 c 3.36466,1.41701 8.21654,3.27412 10.78321,4.12695 2.56666,0.85282 6.76731,2.70013 9.33398,4.10547 6.98339,3.82366 8.43527,3.36665 10.875,-3.41797 2.1879,-6.08429 2.18799,-6.08303 -1.34375,-7.38476 -15.02139,-5.53658 -17.55606,-7.0196 -16.73633,-9.78125 0.95007,-3.20074 17.21148,-49.7522 18.44922,-52.81446 0.6343,-1.56933 -0.75365,-2.57513 -5.77734,-4.18164 z"
       id="path205" />
    <path
       style=""
       d="m 815.11133,145.77734 c -1.12573,1.12574 -16.54962,66.69097 -16.16211,68.70313 0.2832,1.47055 5.21836,3.38977 16.39453,6.37695 20.10275,5.37307 18.60899,5.44927 20.55469,-1.04492 1.98106,-6.61218 2.04947,-6.55028 -11.05078,-9.63867 l -9.75977,-2.30274 1.96875,-8.93554 c 1.08285,-4.91474 2.08852,-9.08626 2.23633,-9.27149 0.1478,-0.18523 3.76279,0.86346 8.03125,2.33203 9.75979,3.35786 9.49106,3.38246 11.07617,-0.99609 0.73006,-2.01667 1.72856,-4.65681 2.2207,-5.86719 0.73662,-1.81166 -0.78229,-2.6337 -8.5957,-4.64648 -9.04069,-2.32893 -9.45198,-2.60375 -8.68359,-5.79883 2.95835,-12.3012 3.48634,-13.48403 5.72851,-12.82617 10.37516,3.0441 19.46026,4.78773 20.26367,3.88867 2.32031,-2.59657 3.91484,-9.86727 2.28516,-10.42188 -6.91429,-2.353 -36.07673,-9.98186 -36.50781,-9.55078 z"
       id="path204" />
    <path
       style=""
       d="m 598.10937,135.09961 c -0.16573,-0.005 -0.32989,0.0162 -0.49414,0.0625 -1.25485,0.35348 -4.83254,1.03875 -7.94921,1.52344 -3.11666,0.4847 -5.66979,1.28008 -5.67579,1.76562 -0.006,0.48554 -0.56809,5.73268 -1.25,11.66211 -0.6819,5.92942 -2.1828,20.32942 -3.33398,32 -1.15118,11.67057 -2.38565,22.93332 -2.74414,25.02734 -0.48697,2.84452 -0.19112,3.63046 1.17187,3.10743 1.00339,-0.38503 4.62779,-1.12117 8.05274,-1.63477 4.62468,-0.69352 6.17177,-1.4933 6.01562,-3.10742 -1.02247,-10.56903 -0.33492,-11.75481 7.31836,-12.6543 3.97094,-0.46671 8.13213,-1.19873 9.24805,-1.62695 1.47172,-0.56475 2.81993,1.06105 4.91016,5.91992 2.67833,6.22594 12.25916,8.86309 17.13086,4.71484 0.57707,-0.49137 -17.56602,-41.09619 -25.43946,-56.93359 -3.60028,-7.24193 -5.35885,-9.78081 -6.96094,-9.82617 z m -2.96484,20.50391 c 0.3208,-0.079 2.80576,4.87182 5.69922,11.375 5.49705,12.35481 5.49835,12.35501 1.99414,13.19726 -9.37688,2.25376 -9.2321,2.44192 -8.5625,-11.17578 0.33354,-6.78333 0.71152,-12.79365 0.83984,-13.35547 0.004,-0.0154 0.009,-0.0262 0.0156,-0.0332 0.003,-0.002 0.01,-0.007 0.0137,-0.008 z"
       id="path203" />
    <path
       style=""
       d="m 708.21875,127.63477 -0.77344,5.8496 c -0.42505,3.21711 -1.38715,12.74831 -2.13867,21.18165 -0.75153,8.43333 -1.93789,21.03333 -2.63477,28 -0.69688,6.96666 -1.28283,14.01796 -1.30273,15.66796 -0.0537,4.4566 26.57168,4.55712 35.70703,0.13477 9.18962,-4.44862 14.93382,-19.46142 14.91602,-38.98438 -0.0199,-21.85501 -7.53683,-28.82694 -33.40625,-30.98437 z m 15.17578,13.62304 c 3.12365,-0.11798 9.13571,2.32751 11.21484,4.97071 5.45808,6.93882 2.95744,35.29566 -3.56445,40.42578 -6.69937,5.26972 -13.72032,3.73486 -13.66992,-2.98828 0.0619,-8.24826 3.50317,-40.98756 4.40234,-41.88672 0.32935,-0.32935 0.89635,-0.49426 1.61719,-0.52149 z"
       id="path202" />
    <path
       style=""
       d="m 673.33398,126.66602 -0.10546,21.66796 C 673.17063,160.25065 672.79414,169.1 672.39258,168 c -0.40155,-1.1 -5.53282,-10.55 -11.40235,-21 -11.43189,-20.3531 -11.14269,-20.1031 -20.94531,-18.14258 l -4.28906,0.85742 0.92969,27.47657 c 0.51118,15.11163 1.13213,29.57591 1.3789,32.14257 0.24677,2.56667 0.48309,6.31538 0.52539,8.33204 0.0743,3.54722 0.3161,3.66796 7.42578,3.66796 7.34909,0 7.34838,0 6.7168,-5 -0.96199,-7.61567 -2.169,-39 -1.5,-39 0.58293,0 4.19501,6.43669 17.01953,30.33204 C 674.87119,199.99935 674.87103,200 682.16797,200 h 7.29687 l -0.71093,-7.66602 c -0.39166,-4.21666 -1.08762,-20.71796 -1.54688,-36.66796 l -0.83594,-29 h -6.51953 z"
       id="path102" />
  </g>
</svg>
